<svg xmlns="http://www.w3.org/2000/svg" width="300" height="300"> 
<g transform="translate(257, 393)">
<circle r="5" stroke-width="2" fill="orangered" stroke="#660000"/>
</g>
<g transform="translate(390, 150)">
<circle r="5" stroke-width="2" fill="orangered" stroke="#660000"/>
</g>
<g transform="translate(356, 246)">
<circle r="5" stroke-width="2" fill="orangered" stroke="#660000"/>
</g>
<g transform="translate(213, 301)">
<circle r="5" stroke-width="2" fill="orangered" stroke="#660000"/>
</g>
<g transform="translate(29, 182)">
<circle r="5" stroke-width="2" fill="orangered" stroke="#660000"/>
</g>
<g transform="translate(372, 119)">
<circle r="5" stroke-width="2" fill="orangered" stroke="#660000"/>
</g>
<g transform="translate(206, 70)">
<circle r="5" stroke-width="2" fill="orangered" stroke="#660000"/>
</g>
<g transform="translate(398, 133)">
<circle r="5" stroke-width="2" fill="orangered" stroke="#660000"/>
</g>
<g transform="translate(132, 149)">
<circle r="5" stroke-width="2" fill="orangered" stroke="#660000"/>
</g>
<g transform="translate(83, 290)">
<circle r="5" stroke-width="2" fill="orangered" stroke="#660000"/>
</g>
<g transform="translate(276, 72)">
<circle r="5" stroke-width="2" fill="orangered" stroke="#660000"/>
</g>
<g transform="translate(209, 289)">
<circle r="5" stroke-width="2" fill="orangered" stroke="#660000"/>
</g>
<g transform="translate(176, 378)">
<circle r="5" stroke-width="2" fill="orangered" stroke="#660000"/>
</g>
<g transform="translate(96, 211)">
<circle r="5" stroke-width="2" fill="orangered" stroke="#660000"/>
</g>
<g transform="translate(389, 353)">
<circle r="5" stroke-width="2" fill="orangered" stroke="#660000"/>
</g>
<g transform="translate(103, 374)">
<circle r="5" stroke-width="2" fill="orangered" stroke="#660000"/>
</g>
<g transform="translate(148, 12)">
<circle r="5" stroke-width="2" fill="orangered" stroke="#660000"/>
</g>
<g transform="translate(334, 7)">
<circle r="5" stroke-width="2" fill="orangered" stroke="#660000"/>
</g>
<g transform="translate(364, 248)">
<circle r="5" stroke-width="2" fill="orangered" stroke="#660000"/>
</g>
<g transform="translate(161, 71)">
<circle r="5" stroke-width="2" fill="orangered" stroke="#660000"/>
</g>
<g transform="translate(193, 50)">
<circle r="5" stroke-width="2" fill="orangered" stroke="#660000"/>
</g>
<g transform="translate(77, 347)">
<circle r="5" stroke-width="2" fill="orangered" stroke="#660000"/>
</g>
<g transform="translate(251, 343)">
<circle r="5" stroke-width="2" fill="orangered" stroke="#660000"/>
</g>
<g transform="translate(42, 13)">
<circle r="5" stroke-width="2" fill="orangered" stroke="#660000"/>
</g>
<g transform="translate(397, 87)">
<circle r="5" stroke-width="2" fill="orangered" stroke="#660000"/>
</g>
<g transform="translate(5, 240)">
<circle r="5" stroke-width="2" fill="orangered" stroke="#660000"/>
</g>
<g transform="translate(175, 87)">
<circle r="5" stroke-width="2" fill="orangered" stroke="#660000"/>
</g>
<g transform="translate(329, 225)">
<circle r="5" stroke-width="2" fill="orangered" stroke="#660000"/>
</g>
<g transform="translate(59, 230)">
<circle r="5" stroke-width="2" fill="orangered" stroke="#660000"/>
</g>
<g transform="translate(42, 122)">
<circle r="5" stroke-width="2" fill="orangered" stroke="#660000"/>
</g>
<g transform="translate(49, 103)">
<circle r="5" stroke-width="2" fill="orangered" stroke="#660000"/>
</g>
<g transform="translate(109, 144)">
<circle r="5" stroke-width="2" fill="orangered" stroke="#660000"/>
</g>
<g transform="translate(71, 109)">
<circle r="5" stroke-width="2" fill="orangered" stroke="#660000"/>
</g>
<g transform="translate(391, 268)">
<circle r="5" stroke-width="2" fill="orangered" stroke="#660000"/>
</g>
<g transform="translate(161, 262)">
<circle r="5" stroke-width="2" fill="orangered" stroke="#660000"/>
</g>
<g transform="translate(305, 134)">
<circle r="5" stroke-width="2" fill="orangered" stroke="#660000"/>
</g>
<g transform="translate(137, 126)">
<circle r="5" stroke-width="2" fill="orangered" stroke="#660000"/>
</g>
<g transform="translate(245, 284)">
<circle r="5" stroke-width="2" fill="orangered" stroke="#660000"/>
</g>
<g transform="translate(26, 372)">
<circle r="5" stroke-width="2" fill="orangered" stroke="#660000"/>
</g>
<g transform="translate(359, 211)">
<circle r="5" stroke-width="2" fill="orangered" stroke="#660000"/>
</g>
<g transform="translate(367, 73)">
<circle r="5" stroke-width="2" fill="orangered" stroke="#660000"/>
</g>
<g transform="translate(35, 21)">
<circle r="5" stroke-width="2" fill="orangered" stroke="#660000"/>
</g>
<g transform="translate(179, 149)">
<circle r="5" stroke-width="2" fill="orangered" stroke="#660000"/>
</g>
<g transform="translate(31, 280)">
<circle r="5" stroke-width="2" fill="orangered" stroke="#660000"/>
</g>
<g transform="translate(164, 227)">
<circle r="5" stroke-width="2" fill="orangered" stroke="#660000"/>
</g>
<g transform="translate(156, 96)">
<circle r="5" stroke-width="2" fill="orangered" stroke="#660000"/>
</g>
<g transform="translate(42, 173)">
<circle r="5" stroke-width="2" fill="orangered" stroke="#660000"/>
</g>
<g transform="translate(383, 234)">
<circle r="5" stroke-width="2" fill="orangered" stroke="#660000"/>
</g>
<g transform="translate(78, 354)">
<circle r="5" stroke-width="2" fill="orangered" stroke="#660000"/>
</g>
<g transform="translate(134, 217)">
<circle r="5" stroke-width="2" fill="orangered" stroke="#660000"/>
</g>
<g transform="translate(312, 164)">
<circle r="5" stroke-width="2" fill="orangered" stroke="#660000"/>
</g>
<g transform="translate(121, 110)">
<circle r="5" stroke-width="2" fill="orangered" stroke="#660000"/>
</g>
<g transform="translate(137, 334)">
<circle r="5" stroke-width="2" fill="orangered" stroke="#660000"/>
</g>
<g transform="translate(95, 112)">
<circle r="5" stroke-width="2" fill="orangered" stroke="#660000"/>
</g>
<g transform="translate(369, 274)">
<circle r="5" stroke-width="2" fill="orangered" stroke="#660000"/>
</g>
<g transform="translate(122, 91)">
<circle r="5" stroke-width="2" fill="orangered" stroke="#660000"/>
</g>
<g transform="translate(30, 353)">
<circle r="5" stroke-width="2" fill="orangered" stroke="#660000"/>
</g>
<g transform="translate(368, 100)">
<circle r="5" stroke-width="2" fill="orangered" stroke="#660000"/>
</g>
<g transform="translate(355, 4)">
<circle r="5" stroke-width="2" fill="orangered" stroke="#660000"/>
</g>
<g transform="translate(374, 59)">
<circle r="5" stroke-width="2" fill="orangered" stroke="#660000"/>
</g>
<g transform="translate(48, 231)">
<circle r="5" stroke-width="2" fill="orangered" stroke="#660000"/>
</g>
<g transform="translate(27, 265)">
<circle r="5" stroke-width="2" fill="orangered" stroke="#660000"/>
</g>
<g transform="translate(387, 133)">
<circle r="5" stroke-width="2" fill="orangered" stroke="#660000"/>
</g>
<g transform="translate(159, 105)">
<circle r="5" stroke-width="2" fill="orangered" stroke="#660000"/>
</g>
<g transform="translate(155, 303)">
<circle r="5" stroke-width="2" fill="orangered" stroke="#660000"/>
</g>
<g transform="translate(47, 99)">
<circle r="5" stroke-width="2" fill="orangered" stroke="#660000"/>
</g>
<g transform="translate(245, 357)">
<circle r="5" stroke-width="2" fill="orangered" stroke="#660000"/>
</g>
<g transform="translate(157, 99)">
<circle r="5" stroke-width="2" fill="orangered" stroke="#660000"/>
</g>
<g transform="translate(214, 119)">
<circle r="5" stroke-width="2" fill="orangered" stroke="#660000"/>
</g>
<g transform="translate(272, 232)">
<circle r="5" stroke-width="2" fill="orangered" stroke="#660000"/>
</g>
<g transform="translate(195, 389)">
<circle r="5" stroke-width="2" fill="orangered" stroke="#660000"/>
</g>
<g transform="translate(69, 73)">
<circle r="5" stroke-width="2" fill="orangered" stroke="#660000"/>
</g>
<g transform="translate(127, 195)">
<circle r="5" stroke-width="2" fill="orangered" stroke="#660000"/>
</g>
<g transform="translate(1, 114)">
<circle r="5" stroke-width="2" fill="orangered" stroke="#660000"/>
</g>
<g transform="translate(226, 248)">
<circle r="5" stroke-width="2" fill="orangered" stroke="#660000"/>
</g>
<g transform="translate(308, 236)">
<circle r="5" stroke-width="2" fill="orangered" stroke="#660000"/>
</g>
<g transform="translate(291, 70)">
<circle r="5" stroke-width="2" fill="orangered" stroke="#660000"/>
</g>
<g transform="translate(235, 378)">
<circle r="5" stroke-width="2" fill="orangered" stroke="#660000"/>
</g>
<g transform="translate(322, 276)">
<circle r="5" stroke-width="2" fill="orangered" stroke="#660000"/>
</g>
<g transform="translate(307, 399)">
<circle r="5" stroke-width="2" fill="orangered" stroke="#660000"/>
</g>
<g transform="translate(372, 70)">
<circle r="5" stroke-width="2" fill="orangered" stroke="#660000"/>
</g>
<g transform="translate(181, 365)">
<circle r="5" stroke-width="2" fill="orangered" stroke="#660000"/>
</g>
<g transform="translate(12, 238)">
<circle r="5" stroke-width="2" fill="orangered" stroke="#660000"/>
</g>
<g transform="translate(2, 361)">
<circle r="5" stroke-width="2" fill="orangered" stroke="#660000"/>
</g>
<g transform="translate(3, 300)">
<circle r="5" stroke-width="2" fill="orangered" stroke="#660000"/>
</g>
<g transform="translate(156, 315)">
<circle r="5" stroke-width="2" fill="orangered" stroke="#660000"/>
</g>
<g transform="translate(99, 129)">
<circle r="5" stroke-width="2" fill="orangered" stroke="#660000"/>
</g>
<g transform="translate(238, 273)">
<circle r="5" stroke-width="2" fill="orangered" stroke="#660000"/>
</g>
<g transform="translate(118, 81)">
<circle r="5" stroke-width="2" fill="orangered" stroke="#660000"/>
</g>
<g transform="translate(121, 114)">
<circle r="5" stroke-width="2" fill="orangered" stroke="#660000"/>
</g>
<g transform="translate(134, 23)">
<circle r="5" stroke-width="2" fill="orangered" stroke="#660000"/>
</g>
<g transform="translate(77, 256)">
<circle r="5" stroke-width="2" fill="orangered" stroke="#660000"/>
</g>
<g transform="translate(208, 306)">
<circle r="5" stroke-width="2" fill="orangered" stroke="#660000"/>
</g>
<g transform="translate(16, 359)">
<circle r="5" stroke-width="2" fill="orangered" stroke="#660000"/>
</g>
<g transform="translate(42, 61)">
<circle r="5" stroke-width="2" fill="orangered" stroke="#660000"/>
</g>
<g transform="translate(174, 354)">
<circle r="5" stroke-width="2" fill="orangered" stroke="#660000"/>
</g>
<g transform="translate(77, 109)">
<circle r="5" stroke-width="2" fill="orangered" stroke="#660000"/>
</g>
<g transform="translate(333, 28)">
<circle r="5" stroke-width="2" fill="orangered" stroke="#660000"/>
</g>
<g transform="translate(385, 387)">
<circle r="5" stroke-width="2" fill="orangered" stroke="#660000"/>
</g>
<g transform="translate(91, 212)">
<circle r="5" stroke-width="2" fill="orangered" stroke="#660000"/>
</g>
<g transform="translate(212, 305)">
<circle r="5" stroke-width="2" fill="orangered" stroke="#660000"/>
</g>
<g transform="translate(246, 170)">
<circle r="5" stroke-width="2" fill="orangered" stroke="#660000"/>
</g>
<g transform="translate(135, 57)">
<circle r="5" stroke-width="2" fill="orangered" stroke="#660000"/>
</g>
<g transform="translate(120, 183)">
<circle r="5" stroke-width="2" fill="orangered" stroke="#660000"/>
</g>
<g transform="translate(261, 97)">
<circle r="5" stroke-width="2" fill="orangered" stroke="#660000"/>
</g>
<g transform="translate(237, 153)">
<circle r="5" stroke-width="2" fill="orangered" stroke="#660000"/>
</g>
<g transform="translate(337, 3)">
<circle r="5" stroke-width="2" fill="orangered" stroke="#660000"/>
</g>
<g transform="translate(275, 219)">
<circle r="5" stroke-width="2" fill="orangered" stroke="#660000"/>
</g>
<g transform="translate(363, 241)">
<circle r="5" stroke-width="2" fill="orangered" stroke="#660000"/>
</g>
<g transform="translate(349, 243)">
<circle r="5" stroke-width="2" fill="orangered" stroke="#660000"/>
</g>
<g transform="translate(382, 134)">
<circle r="5" stroke-width="2" fill="orangered" stroke="#660000"/>
</g>
<g transform="translate(339, 372)">
<circle r="5" stroke-width="2" fill="orangered" stroke="#660000"/>
</g>
<g transform="translate(329, 343)">
<circle r="5" stroke-width="2" fill="orangered" stroke="#660000"/>
</g>
<g transform="translate(26, 276)">
<circle r="5" stroke-width="2" fill="orangered" stroke="#660000"/>
</g>
<g transform="translate(216, 152)">
<circle r="5" stroke-width="2" fill="orangered" stroke="#660000"/>
</g>
<g transform="translate(108, 376)">
<circle r="5" stroke-width="2" fill="orangered" stroke="#660000"/>
</g>
<g transform="translate(46, 75)">
<circle r="5" stroke-width="2" fill="orangered" stroke="#660000"/>
</g>
<g transform="translate(3, 316)">
<circle r="5" stroke-width="2" fill="orangered" stroke="#660000"/>
</g>
<g transform="translate(161, 275)">
<circle r="5" stroke-width="2" fill="orangered" stroke="#660000"/>
</g>
<g transform="translate(375, 351)">
<circle r="5" stroke-width="2" fill="orangered" stroke="#660000"/>
</g>
<g transform="translate(210, 6)">
<circle r="5" stroke-width="2" fill="orangered" stroke="#660000"/>
</g>
<g transform="translate(65, 218)">
<circle r="5" stroke-width="2" fill="orangered" stroke="#660000"/>
</g>
<g transform="translate(328, 337)">
<circle r="5" stroke-width="2" fill="orangered" stroke="#660000"/>
</g>
<g transform="translate(11, 113)">
<circle r="5" stroke-width="2" fill="orangered" stroke="#660000"/>
</g>
<g transform="translate(344, 246)">
<circle r="5" stroke-width="2" fill="orangered" stroke="#660000"/>
</g>
<g transform="translate(199, 338)">
<circle r="5" stroke-width="2" fill="orangered" stroke="#660000"/>
</g>
<g transform="translate(307, 145)">
<circle r="5" stroke-width="2" fill="orangered" stroke="#660000"/>
</g>
<g transform="translate(25, 139)">
<circle r="5" stroke-width="2" fill="orangered" stroke="#660000"/>
</g>
<g transform="translate(332, 312)">
<circle r="5" stroke-width="2" fill="orangered" stroke="#660000"/>
</g>
<g transform="translate(369, 136)">
<circle r="5" stroke-width="2" fill="orangered" stroke="#660000"/>
</g>
<g transform="translate(100, 16)">
<circle r="5" stroke-width="2" fill="orangered" stroke="#660000"/>
</g>
<g transform="translate(57, 394)">
<circle r="5" stroke-width="2" fill="orangered" stroke="#660000"/>
</g>
<g transform="translate(4, 156)">
<circle r="5" stroke-width="2" fill="orangered" stroke="#660000"/>
</g>
<g transform="translate(39, 19)">
<circle r="5" stroke-width="2" fill="orangered" stroke="#660000"/>
</g>
<g transform="translate(167, 241)">
<circle r="5" stroke-width="2" fill="orangered" stroke="#660000"/>
</g>
<g transform="translate(223, 237)">
<circle r="5" stroke-width="2" fill="orangered" stroke="#660000"/>
</g>
<g transform="translate(241, 229)">
<circle r="5" stroke-width="2" fill="orangered" stroke="#660000"/>
</g>
<g transform="translate(377, 394)">
<circle r="5" stroke-width="2" fill="orangered" stroke="#660000"/>
</g>
<g transform="translate(223, 293)">
<circle r="5" stroke-width="2" fill="orangered" stroke="#660000"/>
</g>
<g transform="translate(330, 246)">
<circle r="5" stroke-width="2" fill="orangered" stroke="#660000"/>
</g>
<g transform="translate(108, 326)">
<circle r="5" stroke-width="2" fill="orangered" stroke="#660000"/>
</g>
<g transform="translate(178, 105)">
<circle r="5" stroke-width="2" fill="orangered" stroke="#660000"/>
</g>
<g transform="translate(302, 259)">
<circle r="5" stroke-width="2" fill="orangered" stroke="#660000"/>
</g>
<g transform="translate(385, 297)">
<circle r="5" stroke-width="2" fill="orangered" stroke="#660000"/>
</g>
<g transform="translate(347, 277)">
<circle r="5" stroke-width="2" fill="orangered" stroke="#660000"/>
</g>
<g transform="translate(342, 285)">
<circle r="5" stroke-width="2" fill="orangered" stroke="#660000"/>
</g>
<g transform="translate(203, 65)">
<circle r="5" stroke-width="2" fill="orangered" stroke="#660000"/>
</g>
<g transform="translate(70, 236)">
<circle r="5" stroke-width="2" fill="orangered" stroke="#660000"/>
</g>
<g transform="translate(43, 42)">
<circle r="5" stroke-width="2" fill="orangered" stroke="#660000"/>
</g>
<g transform="translate(69, 131)">
<circle r="5" stroke-width="2" fill="orangered" stroke="#660000"/>
</g>
<g transform="translate(91, 392)">
<rect x="-20" width="40" y="-20" stroke-width="1" fill="#00ffff" stroke="#004cff" height="40"/>
</g>
<g transform="translate(180, 117)">
<rect x="-20" width="40" y="-20" stroke-width="1" fill="#00ffff" stroke="#004cff" height="40"/>
</g>
<g transform="translate(101, 273)">
<rect x="-20" width="40" y="-20" stroke-width="1" fill="#00ffff" stroke="#004cff" height="40"/>
</g>
<g transform="translate(200, 77)">
<rect x="-20" width="40" y="-20" stroke-width="1" fill="#00ffff" stroke="#004cff" height="40"/>
</g>
<g transform="translate(250, 51)">
<rect x="-20" width="40" y="-20" stroke-width="1" fill="#00ffff" stroke="#004cff" height="40"/>
</g>
<g transform="translate(131, 15)">
<rect x="-20" width="40" y="-20" stroke-width="1" fill="#00ffff" stroke="#004cff" height="40"/>
</g>
<g transform="translate(363, 51)">
<rect x="-20" width="40" y="-20" stroke-width="1" fill="#00ffff" stroke="#004cff" height="40"/>
</g>
<g transform="translate(1, 108)">
<rect x="-20" width="40" y="-20" stroke-width="1" fill="#00ffff" stroke="#004cff" height="40"/>
</g>
<g transform="translate(49, 160)">
<rect x="-20" width="40" y="-20" stroke-width="1" fill="#00ffff" stroke="#004cff" height="40"/>
</g>
<g transform="translate(32, 324)">
<rect x="-20" width="40" y="-20" stroke-width="1" fill="#00ffff" stroke="#004cff" height="40"/>
</g>
<g transform="translate(105, 289)">
<rect x="-20" width="40" y="-20" stroke-width="1" fill="#00ffff" stroke="#004cff" height="40"/>
</g>
<g transform="translate(125, 294)">
<rect x="-20" width="40" y="-20" stroke-width="1" fill="#00ffff" stroke="#004cff" height="40"/>
</g>
<g transform="translate(240, 269)">
<rect x="-20" width="40" y="-20" stroke-width="1" fill="#00ffff" stroke="#004cff" height="40"/>
</g>
<g transform="translate(263, 291)">
<rect x="-20" width="40" y="-20" stroke-width="1" fill="#00ffff" stroke="#004cff" height="40"/>
</g>
<g transform="translate(182, 169)">
<rect x="-20" width="40" y="-20" stroke-width="1" fill="#00ffff" stroke="#004cff" height="40"/>
</g>
<g transform="translate(82, 113)">
<rect x="-20" width="40" y="-20" stroke-width="1" fill="#00ffff" stroke="#004cff" height="40"/>
</g>
<g transform="translate(322, 251)">
<rect x="-20" width="40" y="-20" stroke-width="1" fill="#00ffff" stroke="#004cff" height="40"/>
</g>
<g transform="translate(283, 331)">
<rect x="-20" width="40" y="-20" stroke-width="1" fill="#00ffff" stroke="#004cff" height="40"/>
</g>
<g transform="translate(146, 302)">
<rect x="-20" width="40" y="-20" stroke-width="1" fill="#00ffff" stroke="#004cff" height="40"/>
</g>
<g transform="translate(275, 133)">
<rect x="-20" width="40" y="-20" stroke-width="1" fill="#00ffff" stroke="#004cff" height="40"/>
</g>
<g transform="translate(349, 46)">
<rect x="-20" width="40" y="-20" stroke-width="1" fill="#00ffff" stroke="#004cff" height="40"/>
</g>
<g transform="translate(138, 30)">
<rect x="-20" width="40" y="-20" stroke-width="1" fill="#00ffff" stroke="#004cff" height="40"/>
</g>
<g transform="translate(344, 131)">
<rect x="-20" width="40" y="-20" stroke-width="1" fill="#00ffff" stroke="#004cff" height="40"/>
</g>
<g transform="translate(137, 254)">
<rect x="-20" width="40" y="-20" stroke-width="1" fill="#00ffff" stroke="#004cff" height="40"/>
</g>
<g transform="translate(129, 315)">
<rect x="-20" width="40" y="-20" stroke-width="1" fill="#00ffff" stroke="#004cff" height="40"/>
</g>
<g transform="translate(187, 303)">
<rect x="-20" width="40" y="-20" stroke-width="1" fill="#00ffff" stroke="#004cff" height="40"/>
</g>
<g transform="translate(107, 304)">
<rect x="-20" width="40" y="-20" stroke-width="1" fill="#00ffff" stroke="#004cff" height="40"/>
</g>
<g transform="translate(377, 40)">
<rect x="-20" width="40" y="-20" stroke-width="1" fill="#00ffff" stroke="#004cff" height="40"/>
</g>
<g transform="translate(310, 281)">
<rect x="-20" width="40" y="-20" stroke-width="1" fill="#00ffff" stroke="#004cff" height="40"/>
</g>
<g transform="translate(49, 227)">
<rect x="-20" width="40" y="-20" stroke-width="1" fill="#00ffff" stroke="#004cff" height="40"/>
</g>
<g transform="translate(58, 155)">
<rect x="-20" width="40" y="-20" stroke-width="1" fill="#00ffff" stroke="#004cff" height="40"/>
</g>
<g transform="translate(50, 240)">
<rect x="-20" width="40" y="-20" stroke-width="1" fill="#00ffff" stroke="#004cff" height="40"/>
</g>
<g transform="translate(256, 96)">
<rect x="-20" width="40" y="-20" stroke-width="1" fill="#00ffff" stroke="#004cff" height="40"/>
</g>
<g transform="translate(7, 195)">
<rect x="-20" width="40" y="-20" stroke-width="1" fill="#00ffff" stroke="#004cff" height="40"/>
</g>
<g transform="translate(205, 256)">
<rect x="-20" width="40" y="-20" stroke-width="1" fill="#00ffff" stroke="#004cff" height="40"/>
</g>
<g transform="translate(317, 297)">
<rect x="-20" width="40" y="-20" stroke-width="1" fill="#00ffff" stroke="#004cff" height="40"/>
</g>
<g transform="translate(140, 108)">
<rect x="-20" width="40" y="-20" stroke-width="1" fill="#00ffff" stroke="#004cff" height="40"/>
</g>
<g transform="translate(51, 232)">
<rect x="-20" width="40" y="-20" stroke-width="1" fill="#00ffff" stroke="#004cff" height="40"/>
</g>
<g transform="translate(215, 250)">
<rect x="-20" width="40" y="-20" stroke-width="1" fill="#00ffff" stroke="#004cff" height="40"/>
</g>
<g transform="translate(125, 132)">
<rect x="-20" width="40" y="-20" stroke-width="1" fill="#00ffff" stroke="#004cff" height="40"/>
</g>
<g transform="translate(66, 186)">
<rect x="-20" width="40" y="-20" stroke-width="1" fill="#00ffff" stroke="#004cff" height="40"/>
</g>
<g transform="translate(245, 301)">
<rect x="-20" width="40" y="-20" stroke-width="1" fill="#00ffff" stroke="#004cff" height="40"/>
</g>
<g transform="translate(20, 230)">
<rect x="-20" width="40" y="-20" stroke-width="1" fill="#00ffff" stroke="#004cff" height="40"/>
</g>
<g transform="translate(350, 294)">
<rect x="-20" width="40" y="-20" stroke-width="1" fill="#00ffff" stroke="#004cff" height="40"/>
</g>
<g transform="translate(194, 392)">
<rect x="-20" width="40" y="-20" stroke-width="1" fill="#00ffff" stroke="#004cff" height="40"/>
</g>
<g transform="translate(358, 113)">
<rect x="-20" width="40" y="-20" stroke-width="1" fill="#00ffff" stroke="#004cff" height="40"/>
</g>
<g transform="translate(26, 198)">
<rect x="-20" width="40" y="-20" stroke-width="1" fill="#00ffff" stroke="#004cff" height="40"/>
</g>
<g transform="translate(56, 341)">
<rect x="-20" width="40" y="-20" stroke-width="1" fill="#00ffff" stroke="#004cff" height="40"/>
</g>
<g transform="translate(249, 393)">
<rect x="-20" width="40" y="-20" stroke-width="1" fill="#00ffff" stroke="#004cff" height="40"/>
</g>
<g transform="translate(315, 242)">
<rect x="-20" width="40" y="-20" stroke-width="1" fill="#00ffff" stroke="#004cff" height="40"/>
</g>
<g transform="translate(121, 268)">
<rect x="-20" width="40" y="-20" stroke-width="1" fill="#00ffff" stroke="#004cff" height="40"/>
</g>
<g transform="translate(379, 155)">
<rect x="-20" width="40" y="-20" stroke-width="1" fill="#00ffff" stroke="#004cff" height="40"/>
</g>
<g transform="translate(59, 207)">
<rect x="-20" width="40" y="-20" stroke-width="1" fill="#00ffff" stroke="#004cff" height="40"/>
</g>
<g transform="translate(210, 1)">
<rect x="-20" width="40" y="-20" stroke-width="1" fill="#00ffff" stroke="#004cff" height="40"/>
</g>
<g transform="translate(109, 298)">
<rect x="-20" width="40" y="-20" stroke-width="1" fill="#00ffff" stroke="#004cff" height="40"/>
</g>
<g transform="translate(210, 305)">
<rect x="-20" width="40" y="-20" stroke-width="1" fill="#00ffff" stroke="#004cff" height="40"/>
</g>
<g transform="translate(248, 367)">
<rect x="-20" width="40" y="-20" stroke-width="1" fill="#00ffff" stroke="#004cff" height="40"/>
</g>
<g transform="translate(194, 356)">
<rect x="-20" width="40" y="-20" stroke-width="1" fill="#00ffff" stroke="#004cff" height="40"/>
</g>
<g transform="translate(56, 56)">
<rect x="-20" width="40" y="-20" stroke-width="1" fill="#00ffff" stroke="#004cff" height="40"/>
</g>
<g transform="translate(354, 117)">
<rect x="-20" width="40" y="-20" stroke-width="1" fill="#00ffff" stroke="#004cff" height="40"/>
</g>
<g transform="translate(360, 208)">
<rect x="-20" width="40" y="-20" stroke-width="1" fill="#00ffff" stroke="#004cff" height="40"/>
</g>
<g transform="translate(332, 287)">
<rect x="-20" width="40" y="-20" stroke-width="1" fill="#00ffff" stroke="#004cff" height="40"/>
</g>
<g transform="translate(58, 46)">
<rect x="-20" width="40" y="-20" stroke-width="1" fill="#00ffff" stroke="#004cff" height="40"/>
</g>
<g transform="translate(185, 132)">
<rect x="-20" width="40" y="-20" stroke-width="1" fill="#00ffff" stroke="#004cff" height="40"/>
</g>
<g transform="translate(225, 299)">
<rect x="-20" width="40" y="-20" stroke-width="1" fill="#00ffff" stroke="#004cff" height="40"/>
</g>
<g transform="translate(13, 362)">
<rect x="-20" width="40" y="-20" stroke-width="1" fill="#00ffff" stroke="#004cff" height="40"/>
</g>
<g transform="translate(123, 228)">
<rect x="-20" width="40" y="-20" stroke-width="1" fill="#00ffff" stroke="#004cff" height="40"/>
</g>
<g transform="translate(241, 287)">
<rect x="-20" width="40" y="-20" stroke-width="1" fill="#00ffff" stroke="#004cff" height="40"/>
</g>
<g transform="translate(126, 44)">
<rect x="-20" width="40" y="-20" stroke-width="1" fill="#00ffff" stroke="#004cff" height="40"/>
</g>
<g transform="translate(347, 62)">
<rect x="-20" width="40" y="-20" stroke-width="1" fill="#00ffff" stroke="#004cff" height="40"/>
</g>
<g transform="translate(13, 169)">
<rect x="-20" width="40" y="-20" stroke-width="1" fill="#00ffff" stroke="#004cff" height="40"/>
</g>
<g transform="translate(380, 298)">
<rect x="-20" width="40" y="-20" stroke-width="1" fill="#00ffff" stroke="#004cff" height="40"/>
</g>
<g transform="translate(342, 398)">
<rect x="-20" width="40" y="-20" stroke-width="1" fill="#00ffff" stroke="#004cff" height="40"/>
</g>
<g transform="translate(134, 295)">
<rect x="-20" width="40" y="-20" stroke-width="1" fill="#00ffff" stroke="#004cff" height="40"/>
</g>
<g transform="translate(364, 169)">
<rect x="-20" width="40" y="-20" stroke-width="1" fill="#00ffff" stroke="#004cff" height="40"/>
</g>
<g transform="translate(311, 200)">
<rect x="-20" width="40" y="-20" stroke-width="1" fill="#00ffff" stroke="#004cff" height="40"/>
</g>
<g transform="translate(13, 227)">
<rect x="-20" width="40" y="-20" stroke-width="1" fill="#00ffff" stroke="#004cff" height="40"/>
</g>
<g transform="translate(358, 338)">
<rect x="-20" width="40" y="-20" stroke-width="1" fill="#00ffff" stroke="#004cff" height="40"/>
</g>
<g transform="translate(191, 69)">
<rect x="-20" width="40" y="-20" stroke-width="1" fill="#00ffff" stroke="#004cff" height="40"/>
</g>
<g transform="translate(361, 128)">
<rect x="-20" width="40" y="-20" stroke-width="1" fill="#00ffff" stroke="#004cff" height="40"/>
</g>
<g transform="translate(347, 154)">
<rect x="-20" width="40" y="-20" stroke-width="1" fill="#00ffff" stroke="#004cff" height="40"/>
</g>
<g transform="translate(81, 160)">
<rect x="-20" width="40" y="-20" stroke-width="1" fill="#00ffff" stroke="#004cff" height="40"/>
</g>
<g transform="translate(278, 399)">
<rect x="-20" width="40" y="-20" stroke-width="1" fill="#00ffff" stroke="#004cff" height="40"/>
</g>
<g transform="translate(114, 283)">
<rect x="-20" width="40" y="-20" stroke-width="1" fill="#00ffff" stroke="#004cff" height="40"/>
</g>
<g transform="translate(8, 150)">
<rect x="-20" width="40" y="-20" stroke-width="1" fill="#00ffff" stroke="#004cff" height="40"/>
</g>
<g transform="translate(83, 337)">
<rect x="-20" width="40" y="-20" stroke-width="1" fill="#00ffff" stroke="#004cff" height="40"/>
</g>
<g transform="translate(363, 90)">
<rect x="-20" width="40" y="-20" stroke-width="1" fill="#00ffff" stroke="#004cff" height="40"/>
</g>
<g transform="translate(62, 226)">
<rect x="-20" width="40" y="-20" stroke-width="1" fill="#00ffff" stroke="#004cff" height="40"/>
</g>
<g transform="translate(178, 381)">
<rect x="-20" width="40" y="-20" stroke-width="1" fill="#00ffff" stroke="#004cff" height="40"/>
</g>
<g transform="translate(341, 282)">
<rect x="-20" width="40" y="-20" stroke-width="1" fill="#00ffff" stroke="#004cff" height="40"/>
</g>
<g transform="translate(371, 253)">
<rect x="-20" width="40" y="-20" stroke-width="1" fill="#00ffff" stroke="#004cff" height="40"/>
</g>
<g transform="translate(98, 212)">
<rect x="-20" width="40" y="-20" stroke-width="1" fill="#00ffff" stroke="#004cff" height="40"/>
</g>
<g transform="translate(323, 38)">
<rect x="-20" width="40" y="-20" stroke-width="1" fill="#00ffff" stroke="#004cff" height="40"/>
</g>
<g transform="translate(72, 207)">
<rect x="-20" width="40" y="-20" stroke-width="1" fill="#00ffff" stroke="#004cff" height="40"/>
</g>
<g transform="translate(316, 273)">
<rect x="-20" width="40" y="-20" stroke-width="1" fill="#00ffff" stroke="#004cff" height="40"/>
</g>
<g transform="translate(187, 94)">
<rect x="-20" width="40" y="-20" stroke-width="1" fill="#00ffff" stroke="#004cff" height="40"/>
</g>
<g transform="translate(301, 249)">
<rect x="-20" width="40" y="-20" stroke-width="1" fill="#00ffff" stroke="#004cff" height="40"/>
</g>
<g transform="translate(345, 296)">
<rect x="-20" width="40" y="-20" stroke-width="1" fill="#00ffff" stroke="#004cff" height="40"/>
</g>
<g transform="translate(110, 110)">
<rect x="-20" width="40" y="-20" stroke-width="1" fill="#00ffff" stroke="#004cff" height="40"/>
</g>
<g transform="translate(148, 64)">
<rect x="-20" width="40" y="-20" stroke-width="1" fill="#00ffff" stroke="#004cff" height="40"/>
</g>
</svg>
